PathFileType	4	(X/Y/Z)	0_coords_data.trc
DataRate	CameraRate	NumFrames	NumMarkers	Units	OrigDataRate	OrigDataStartFrame	OrigNumFrames
30.0	30.0	6	21	m	30.0	52	72
Frame#	Time	THUMB_TIP	THUMB_IP	THUMB_MCP	THUMB_CMC	INDEX_TIP	INDEX_DIP	INDEX_PIP	INDEX_MCP	MIDDLE_TIP	MIDDLE_DIP	MIDDLE_PIP	MIDDLE_MCP	RING_TIP	RING_DIP	RING_PIP	RING_MCP	PINKY_TIP	PINKY_DIP	PINKY_PIP	PINKY_MCP	WRIST
X1	Y1	Z1	X2	Y2	Z2	X3	Y3	Z3	X4	Y4	Z4	X5	Y5	Z5	X6	Y6	Z6	X7	Y7	Z7	X8	Y8	Z8	X9	Y9	Z9	X10	Y10	Z10	X11	Y11	Z11	X12	Y12	Z12	X13	Y13	Z13	X14	Y14	Z14	X15	Y15	Z15	X16	Y16	Z16	X17	Y17	Z17	X18	Y18	Z18	X19	Y19	Z19	X20	Y20	Z20	X21	Y21	Z21
50	1.6999999999999926	0.5081680855086628	-0.04496766096025173	-0.161396751943776	0.5019422982684727	-0.04040120527181135	-0.1397545003121783	0.478974497503293	-0.039756005113296466	-0.11875726609510884	0.4773853348106597	-0.030533729177743107	-0.0751417391751592	0.5652718608038274	0.007188819154592574	-0.16905175768719294	0.5493348732206755	0.013165530070858522	-0.16286375692783173	0.5273015029855082	0.01707936296914303	-0.15140852488634332	0.49719328092411896	0.005723059489205595	-0.12351290821322342	0.5836516205204838	0.012532086721314006	-0.147099849222947	0.5689092204573396	0.02143766047143958	-0.14150052814273734	0.5431882339408799	0.02958411509479697	-0.13047892754710327	0.5075380133808451	0.017367272712356607	-0.10647979303721983	0.5866267797724446	0.022040944524641004	-0.12017846507205104	0.5727434052619809	0.032059626578136324	-0.11453241139597087	0.5501712550022201	0.03873829749098623	-0.10640385885024445	0.5191312853834789	0.019403793503129152	-0.08915804557248985	0.5818115735897444	0.015122195985077469	-0.08860610941635699	0.5717125364720259	0.026908907336974264	-0.0813892621267151	0.5532739839071674	0.034310330782173826	-0.07460319336064747	0.5234797052838059	0.014917226326440769	-0.06851288040624753	0.462283081001861	-0.023011742144276925	-0.051989820119430985
51	1.7333333333333258	0.5089309576579086	-0.046732178175945105	-0.16062701263875007	0.5022947476135218	-0.041700572633863175	-0.13921104518650385	0.4791198956884999	-0.04060563816607854	-0.11846141008695166	0.4775296462813343	-0.03066211834055199	-0.07500467849905645	0.5635077763138765	0.013515817683408704	-0.1735315576268578	0.5476486252652736	0.016867635480384946	-0.16545364666711904	0.5262941833841988	0.017939273194646166	-0.15223058962431807	0.4975122400905352	0.004847805178961884	-0.12370254553723314	0.5844531298218587	0.020403670447467714	-0.1502323485962943	0.5687371557477555	0.026127836390759218	-0.14328669649186404	0.5427017489605386	0.030539092912333032	-0.13095349093430447	0.5077475575902662	0.016585815421758854	-0.10687739337009317	0.5879157814726845	0.028954465232741033	-0.12196069373024271	0.5725996520162905	0.0358595304169298	-0.11542339663762952	0.5495694817655403	0.0394540690946279	-0.10665581265365814	0.5192404205095744	0.018854326747100525	-0.08961118028603715	0.5842086870717363	0.02035992342753956	-0.08784429761094176	0.5719309356440422	0.030078108604718046	-0.08092955273193009	0.5525901182102615	0.03525009551844638	-0.07460536492973857	0.523448312419601	0.014748847762907413	-0.06900737897714532	0.4622830810018609	-0.023011742144276925	-0.05198982011943093
52	1.7666666666666588	0.5094276662348759	-0.048280513574137096	-0.15997669577695117	0.5024705319570986	-0.042853192877112645	-0.13876013449354274	0.4791616233087018	-0.04136460127187358	-0.11818590613247154	0.4776622686769899	-0.03076923094080697	-0.07488024757338807	0.561442760653844	0.018786464173559003	-0.17667285448743014	0.5460085072419422	0.019882445187876963	-0.16726101900047807	0.5254691685762404	0.018551019382859302	-0.15282589844326266	0.49782138368535656	0.004097305622550951	-0.12383751726799719	0.5843897872807158	0.02731335815743774	-0.15228877276119257	0.5683001690130314	0.030051023615414674	-0.14443833507655374	0.5423252706479034	0.031192901662476125	-0.13126979987149345	0.5079163268810073	0.015966874073306325	-0.10717954055988732	0.5884878292462339	0.03475563026847972	-0.12314680204003664	0.5723874336986207	0.038682492275251334	-0.11605053414837901	0.549273883191745	0.039708113220439434	-0.1068368560748354	0.5192827434800498	0.01851726399367548	-0.08991940112906599	0.5861888270208668	0.02489090997744714	-0.08719201551586142	0.5722213531326932	0.03229201302689544	-0.08062441726120007	0.5523385559033852	0.03552923828311927	-0.07470776567616538	0.5233664729706139	0.014725649351651549	-0.06934935648059826	0.4622830810018609	-0.023011742144276925	-0.05198982011943093
53	1.7999999999999918	0.5098212893957277	-0.04952845446813936	-0.1594785249137185	0.5025900774407523	-0.04377859086193259	-0.13843930814663702	0.47918675982751346	-0.04194952169756483	-0.11800014890057631	0.47771211439552586	-0.03083836063554979	-0.07482310035966883	0.5594205463472252	0.023070355517658014	-0.17875761078546004	0.5445310981734461	0.022329388218897295	-0.1684738711668914	0.5248318416643152	0.018987826765012206	-0.15321664032255494	0.49805349590615267	0.0035146293939620765	-0.12393974746192471	0.5837460410042569	0.033013623684183036	-0.15357480552060782	0.5677128301844101	0.03321734827374878	-0.14515490961282163	0.5420386167402105	0.03167306428518746	-0.13144872484154563	0.5080210849895161	0.01551010694244892	-0.1074130375302304	0.5885152734024304	0.039481197988749606	-0.12380974784614002	0.5721521453039153	0.040911174016355245	-0.11637986175064302	0.5491593732903863	0.03981080267165715	-0.10687714650511193	0.5192596488358032	0.018364670082144596	-0.09012033569597927	0.5875910527866927	0.028665646275104817	-0.08657017719073645	0.5725123639174691	0.03390729919563451	-0.08039294345338649	0.5523312713933678	0.03549612036504923	-0.07482417601118846	0.5232174328256447	0.01486498608908593	-0.06956830754444321	0.4622830810018608	-0.023011742144276925	-0.05198982011943104
54	1.8333333333333253	0.5100071298395521	-0.050607592611646046	-0.15909174407266247	0.5025482414416391	-0.04461705737348376	-0.13819967688370738	0.47909322557872436	-0.04245481825125019	-0.1178525160781132	0.4777290720142182	-0.03092504006843322	-0.07478172202799743	0.5577436361741264	0.0260981796666796	-0.18014656543797458	0.5433918077120827	0.023955558029719493	-0.1693098596508404	0.5244686178850224	0.019052902189163334	-0.1535020550759445	0.4982690637773691	0.0029688682808434175	-0.12403133550895451	0.582927690987286	0.037306053062079125	-0.1543848510611996	0.5671656536181213	0.035579412230876795	-0.14563402884765425	0.5419108461904846	0.03186607128075669	-0.13156934432288997	0.5081424271976253	0.0150737480207771	-0.10761397583782906	0.5882974805927321	0.043074485916456795	-0.12419072215347116	0.5719577328381305	0.04255677817356496	-0.11659173393075756	0.5491833877619059	0.03971120325347277	-0.10692675132740082	0.519263040176944	0.01818802471696601	-0.09030608888330027	0.5884066428094519	0.03189082569903312	-0.08598581850669851	0.57265643998004	0.035280063531192285	-0.08020272437384451	0.5523304151561013	0.035438877801249435	-0.07494539502480713	0.5231218806391186	0.0149182707200195	-0.06978306537744627	0.4622830810018608	-0.023011742144276925	-0.05198982011943104
55	1.8666666666666587	0.5101749229089625	-0.05153313534639792	-0.15876813740888707	0.5025223113041074	-0.04536403098261288	-0.1379984554909095	0.4790326427197641	-0.042896303131490954	-0.11772616432660071	0.47772824543275505	-0.031037280200129858	-0.07474300340478046	0.5566848419282129	0.027878715049642344	-0.18098686864788216	0.5427909771601152	0.02469183693817345	-0.16981528282900882	0.5244623471614109	0.018691662979514634	-0.1536886257719362	0.49849142919344847	0.0024351250569735194	-0.12411038226975468	0.5822547508970362	0.04028403330257535	-0.15482729048019028	0.5668125577978965	0.03709442699099885	-0.14591858216382736	0.5419642551691825	0.031752068221916785	-0.13165567189788746	0.5083020437753295	0.014640317265170788	-0.107776990521608	0.588075440722854	0.04561283333487831	-0.12439438039911532	0.5718815736841389	0.043605340211669286	-0.11673091892973436	0.5493492322211473	0.03940386499665216	-0.10699330252669481	0.5193138187361781	0.017974276531707578	-0.0904594732965966	0.588853210428119	0.03457918616703104	-0.08543173407683002	0.5727226365092404	0.03639955840882514	-0.08000118806847162	0.5523540361750571	0.03535441393497729	-0.07501723256555098	0.5230809225093132	0.014898935586377338	-0.06996335555454342	0.462283081001861	-0.023011742144276925	-0.051989820119430985
